<?xml version="1.0" encoding="utf-8"?>
<svg width="631px" height="497px" viewBox="0 0 631 497" version="1.1" xmlns:xlink="http://www.w3.org/1999/xlink" xmlns="http://www.w3.org/2000/svg">
  <defs>
    <path d="M0 0L631 0L631 497L0 497L0 0Z" id="path_1" />
    <clipPath id="clip_1">
      <use xlink:href="#path_1" clip-rule="evenodd" fill-rule="evenodd" />
    </clipPath>
  </defs>
  <g id="S" clip-path="url(#clip_1)">
    <g transform="translate(0, 69.545456)" id="S" fill="#FFFFFF">
      <path d="M139.909 121.909Q138.068 106.364 124.977 97.7727Q111.886 89.1818 92.8636 89.1818Q72 89.1818 59.3182 99.0511Q46.6364 108.92 46.6364 123.955Q46.6364 135.205 53.5398 142.108Q60.4432 149.011 69.9034 152.847Q79.3636 156.682 87.1364 158.727L108.409 164.455Q116.591 166.602 126.665 170.386Q136.739 174.17 145.994 180.665Q155.25 187.159 161.284 197.284Q167.318 207.409 167.318 222.136Q167.318 239.114 158.472 252.818Q149.625 266.523 132.699 274.602Q115.773 282.682 91.6364 282.682Q57.8864 282.682 38.0455 266.727Q18.2045 250.773 16.3636 225L42.5455 225Q43.5682 236.864 50.5739 244.585Q57.5796 252.307 68.3693 256.04Q79.1591 259.773 91.6364 259.773Q106.159 259.773 117.716 255.017Q129.273 250.261 136.023 241.722Q142.773 233.182 142.773 221.727Q142.773 211.295 136.943 204.75Q131.114 198.205 121.602 194.114Q112.091 190.023 101.045 186.955L75.2727 179.591Q50.7273 172.534 36.4091 159.443Q22.0909 146.352 22.0909 125.182Q22.0909 107.591 31.6534 94.4489Q41.2159 81.3068 57.4261 73.9943Q73.6364 66.6818 93.6818 66.6818Q113.932 66.6818 129.682 73.892Q145.432 81.1023 154.688 93.5795Q163.943 106.057 164.455 121.909L139.909 121.909Z" />
    </g>
  </g>
  <g id="A" clip-path="url(#clip_1)">
    <g transform="translate(0, 69.545456)" id="S" fill="#FFFFFF">
      <path d="M139.909 121.909Q138.068 106.364 124.977 97.7727Q111.886 89.1818 92.8636 89.1818Q72 89.1818 59.3182 99.0511Q46.6364 108.92 46.6364 123.955Q46.6364 135.205 53.5398 142.108Q60.4432 149.011 69.9034 152.847Q79.3636 156.682 87.1364 158.727L108.409 164.455Q116.591 166.602 126.665 170.386Q136.739 174.17 145.994 180.665Q155.25 187.159 161.284 197.284Q167.318 207.409 167.318 222.136Q167.318 239.114 158.472 252.818Q149.625 266.523 132.699 274.602Q115.773 282.682 91.6364 282.682Q57.8864 282.682 38.0455 266.727Q18.2045 250.773 16.3636 225L42.5455 225Q43.5682 236.864 50.5739 244.585Q57.5796 252.307 68.3693 256.04Q79.1591 259.773 91.6364 259.773Q106.159 259.773 117.716 255.017Q129.273 250.261 136.023 241.722Q142.773 233.182 142.773 221.727Q142.773 211.295 136.943 204.75Q131.114 198.205 121.602 194.114Q112.091 190.023 101.045 186.955L75.2727 179.591Q50.7273 172.534 36.4091 159.443Q22.0909 146.352 22.0909 125.182Q22.0909 107.591 31.6534 94.4489Q41.2159 81.3068 57.4261 73.9943Q73.6364 66.6818 93.6818 66.6818Q113.932 66.6818 129.682 73.892Q145.432 81.1023 154.688 93.5795Q163.943 106.057 164.455 121.909L139.909 121.909Z" />
    </g>
  </g>
</svg>